<?xml version="1.0" encoding="UTF-8" standalone="no"?><svg xmlns="http://www.w3.org/2000/svg" xmlns:xlink="http://www.w3.org/1999/xlink" contentScriptType="application/ecmascript" contentStyleType="text/css" height="862px" preserveAspectRatio="none" style="width:1373px;height:862px;" version="1.1" viewBox="0 0 1373 862" width="1373px" zoomAndPan="magnify"><defs><filter height="300%" id="f99dpd8" width="300%" x="-1" y="-1"><feGaussianBlur result="blurOut" stdDeviation="2.0"/><feColorMatrix in="blurOut" result="blurOut2" type="matrix" values="0 0 0 0 0 0 0 0 0 0 0 0 0 0 0 0 0 0 .4 0"/><feOffset dx="4.0" dy="4.0" in="blurOut2" result="blurOut3"/><feBlend in="SourceGraphic" in2="blurOut3" mode="normal"/></filter></defs><g><!--class Base--><rect fill="#FEFECE" filter="url(#f99dpd8)" height="73.6094" style="stroke: #A80036; stroke-width: 1.5;" width="98" x="548.5" y="27"/><ellipse cx="579.25" cy="43" fill="#ADD1B2" rx="11" ry="11" style="stroke: #A80036; stroke-width: 1.0;"/><path d="M582.2188,48.6406 Q581.6406,48.9375 581,49.0859 Q580.3594,49.2344 579.6563,49.2344 Q577.1563,49.2344 575.8359,47.5859 Q574.5156,45.9375 574.5156,42.8125 Q574.5156,39.6875 575.8359,38.0313 Q577.1563,36.375 579.6563,36.375 Q580.3594,36.375 581.0078,36.5313 Q581.6563,36.6875 582.2188,36.9844 L582.2188,39.7031 Q581.5938,39.125 581,38.8516 Q580.4063,38.5781 579.7813,38.5781 Q578.4375,38.5781 577.75,39.6484 Q577.0625,40.7188 577.0625,42.8125 Q577.0625,44.9063 577.75,45.9766 Q578.4375,47.0469 579.7813,47.0469 Q580.4063,47.0469 581,46.7734 Q581.5938,46.5 582.2188,45.9219 L582.2188,48.6406 Z "/><text fill="#000000" font-family="sans-serif" font-size="12" lengthAdjust="spacingAndGlyphs" textLength="31" x="596.75" y="47.1543">Base</text><line style="stroke: #A80036; stroke-width: 1.5;" x1="549.5" x2="645.5" y1="59" y2="59"/><line style="stroke: #A80036; stroke-width: 1.5;" x1="549.5" x2="645.5" y1="67" y2="67"/><text fill="#000000" font-family="sans-serif" font-size="11" lengthAdjust="spacingAndGlyphs" textLength="69" x="554.5" y="81.2104">str to_json()</text><text fill="#000000" font-family="sans-serif" font-size="11" lengthAdjust="spacingAndGlyphs" textLength="86" x="554.5" y="94.0151">obj from_json()</text><!--class Relays--><rect fill="#FEFECE" filter="url(#f99dpd8)" height="163.2422" style="stroke: #A80036; stroke-width: 1.5;" width="377" x="765" y="180"/><ellipse cx="929.25" cy="196" fill="#ADD1B2" rx="11" ry="11" style="stroke: #A80036; stroke-width: 1.0;"/><path d="M932.2188,201.6406 Q931.6406,201.9375 931,202.0859 Q930.3594,202.2344 929.6563,202.2344 Q927.1563,202.2344 925.8359,200.5859 Q924.5156,198.9375 924.5156,195.8125 Q924.5156,192.6875 925.8359,191.0313 Q927.1563,189.375 929.6563,189.375 Q930.3594,189.375 931.0078,189.5313 Q931.6563,189.6875 932.2188,189.9844 L932.2188,192.7031 Q931.5938,192.125 931,191.8516 Q930.4063,191.5781 929.7813,191.5781 Q928.4375,191.5781 927.75,192.6484 Q927.0625,193.7188 927.0625,195.8125 Q927.0625,197.9063 927.75,198.9766 Q928.4375,200.0469 929.7813,200.0469 Q930.4063,200.0469 931,199.7734 Q931.5938,199.5 932.2188,198.9219 L932.2188,201.6406 Z "/><text fill="#000000" font-family="sans-serif" font-size="12" lengthAdjust="spacingAndGlyphs" textLength="40" x="949.75" y="200.1543">Relays</text><line style="stroke: #A80036; stroke-width: 1.5;" x1="766" x2="1141" y1="212" y2="212"/><text fill="#000000" font-family="sans-serif" font-size="11" lengthAdjust="spacingAndGlyphs" textLength="56" x="771" y="226.2104">list relays</text><line style="stroke: #A80036; stroke-width: 1.5;" x1="766" x2="1141" y1="232.8047" y2="232.8047"/><text fill="#000000" font-family="sans-serif" font-size="11" lengthAdjust="spacingAndGlyphs" textLength="42" x="771" y="247.0151">list all()</text><text fill="#000000" font-family="sans-serif" font-size="11" lengthAdjust="spacingAndGlyphs" textLength="243" x="771" y="259.8198">Relay relay_with_fingerprint(str fingerprint)</text><text fill="#000000" font-family="sans-serif" font-size="11" lengthAdjust="spacingAndGlyphs" textLength="119" x="771" y="272.6245">list ordered_subset()</text><text fill="#000000" font-family="sans-serif" font-size="11" lengthAdjust="spacingAndGlyphs" textLength="365" x="771" y="285.4292">list exits_not_bad_can_exit_to_port_bandwidth_ge(int bandwidth)</text><text fill="#000000" font-family="sans-serif" font-size="11" lengthAdjust="spacingAndGlyphs" textLength="243" x="771" y="298.2339">list non_exits_bandwidth_ge(int bandwidth)</text><text fill="#000000" font-family="sans-serif" font-size="11" lengthAdjust="spacingAndGlyphs" textLength="263" x="771" y="311.0386">dict ordered_subset_with_which_to_measure()</text><text fill="#000000" font-family="sans-serif" font-size="11" lengthAdjust="spacingAndGlyphs" textLength="96" x="771" y="323.8433">void add_relay?()</text><text fill="#000000" font-family="sans-serif" font-size="11" lengthAdjust="spacingAndGlyphs" textLength="110" x="771" y="336.6479">void delete_relay?()</text><!--class Relay--><rect fill="#FEFECE" filter="url(#f99dpd8)" height="278.4844" style="stroke: #A80036; stroke-width: 1.5;" width="235" x="423" y="403"/><ellipse cx="519.75" cy="419" fill="#ADD1B2" rx="11" ry="11" style="stroke: #A80036; stroke-width: 1.0;"/><path d="M522.7188,424.6406 Q522.1406,424.9375 521.5,425.0859 Q520.8594,425.2344 520.1563,425.2344 Q517.6563,425.2344 516.3359,423.5859 Q515.0156,421.9375 515.0156,418.8125 Q515.0156,415.6875 516.3359,414.0313 Q517.6563,412.375 520.1563,412.375 Q520.8594,412.375 521.5078,412.5313 Q522.1563,412.6875 522.7188,412.9844 L522.7188,415.7031 Q522.0938,415.125 521.5,414.8516 Q520.9063,414.5781 520.2813,414.5781 Q518.9375,414.5781 518.25,415.6484 Q517.5625,416.7188 517.5625,418.8125 Q517.5625,420.9063 518.25,421.9766 Q518.9375,423.0469 520.2813,423.0469 Q520.9063,423.0469 521.5,422.7734 Q522.0938,422.5 522.7188,421.9219 L522.7188,424.6406 Z "/><text fill="#000000" font-family="sans-serif" font-size="12" lengthAdjust="spacingAndGlyphs" textLength="33" x="540.25" y="423.1543">Relay</text><line style="stroke: #A80036; stroke-width: 1.5;" x1="424" x2="657" y1="435" y2="435"/><text fill="#000000" font-family="sans-serif" font-size="11" lengthAdjust="spacingAndGlyphs" textLength="84" x="429" y="449.2104">list documents</text><text fill="#000000" font-family="sans-serif" font-size="11" lengthAdjust="spacingAndGlyphs" textLength="90" x="429" y="462.0151">list measurents</text><line style="stroke: #A80036; stroke-width: 1.5;" x1="424" x2="657" y1="468.6094" y2="468.6094"/><text fill="#000000" font-family="sans-serif" font-size="11" lengthAdjust="spacingAndGlyphs" textLength="157" x="429" y="482.8198">datetime first_obtained_at()</text><text fill="#000000" font-family="sans-serif" font-size="11" lengthAdjust="spacingAndGlyphs" textLength="213" x="429" y="495.6245">int number_measurement_attempts()</text><text fill="#000000" font-family="sans-serif" font-size="11" lengthAdjust="spacingAndGlyphs" textLength="205" x="429" y="508.4292">int number_measurement_failures()</text><text fill="#000000" font-family="sans-serif" font-size="11" lengthAdjust="spacingAndGlyphs" textLength="223" x="429" y="521.2339">int number_measurement_successful()</text><text fill="#000000" font-family="sans-serif" font-size="11" lengthAdjust="spacingAndGlyphs" textLength="194" x="429" y="534.0386">Document last_document(int type)</text><text fill="#000000" font-family="sans-serif" font-size="11" lengthAdjust="spacingAndGlyphs" textLength="200" x="429" y="546.8433">void remove_old_measurements?()</text><text fill="#000000" font-family="sans-serif" font-size="11" lengthAdjust="spacingAndGlyphs" textLength="148" x="429" y="559.6479">void add_measurement?()</text><text fill="#000000" font-family="sans-serif" font-size="11" lengthAdjust="spacingAndGlyphs" textLength="124" x="429" y="572.4526">void add_document?()</text><text fill="#000000" font-family="sans-serif" font-size="11" lengthAdjust="spacingAndGlyphs" textLength="181" x="429" y="585.2573">int observed_bandwidth_mean()</text><text fill="#000000" font-family="sans-serif" font-size="11" lengthAdjust="spacingAndGlyphs" textLength="191" x="429" y="598.062">int observed_bandwidth_median()</text><text fill="#000000" font-family="sans-serif" font-size="11" lengthAdjust="spacingAndGlyphs" textLength="170" x="429" y="610.8667">int observed_bandwidth_last()</text><text fill="#000000" font-family="sans-serif" font-size="11" lengthAdjust="spacingAndGlyphs" textLength="163" x="429" y="623.6714">int average_bandwidth_last()</text><text fill="#000000" font-family="sans-serif" font-size="11" lengthAdjust="spacingAndGlyphs" textLength="147" x="429" y="636.4761">int burst_bandwidth_last()</text><text fill="#000000" font-family="sans-serif" font-size="11" lengthAdjust="spacingAndGlyphs" textLength="179" x="429" y="649.2808">int consensus_bandwidth_last()</text><text fill="#000000" font-family="sans-serif" font-size="11" lengthAdjust="spacingAndGlyphs" textLength="214" x="429" y="662.0854">int minimum_descriptors_bandwidth()</text><text fill="#000000" font-family="sans-serif" font-size="11" lengthAdjust="spacingAndGlyphs" textLength="212" x="429" y="674.8901">int minimum_documents_bandwidth()</text><!--class Document--><rect fill="#FEFECE" filter="url(#f99dpd8)" height="73.6094" style="stroke: #A80036; stroke-width: 1.5;" width="132" x="214.5" y="760"/><ellipse cx="245.7" cy="776" fill="#ADD1B2" rx="11" ry="11" style="stroke: #A80036; stroke-width: 1.0;"/><path d="M248.6688,781.6406 Q248.0906,781.9375 247.45,782.0859 Q246.8094,782.2344 246.1063,782.2344 Q243.6063,782.2344 242.2859,780.5859 Q240.9656,778.9375 240.9656,775.8125 Q240.9656,772.6875 242.2859,771.0313 Q243.6063,769.375 246.1063,769.375 Q246.8094,769.375 247.4578,769.5313 Q248.1063,769.6875 248.6688,769.9844 L248.6688,772.7031 Q248.0438,772.125 247.45,771.8516 Q246.8563,771.5781 246.2313,771.5781 Q244.8875,771.5781 244.2,772.6484 Q243.5125,773.7188 243.5125,775.8125 Q243.5125,777.9063 244.2,778.9766 Q244.8875,780.0469 246.2313,780.0469 Q246.8563,780.0469 247.45,779.7734 Q248.0438,779.5 248.6688,778.9219 L248.6688,781.6406 Z "/><text fill="#000000" font-family="sans-serif" font-size="12" lengthAdjust="spacingAndGlyphs" textLength="64" x="263.3" y="780.1543">Document</text><line style="stroke: #A80036; stroke-width: 1.5;" x1="215.5" x2="345.5" y1="792" y2="792"/><text fill="#000000" font-family="sans-serif" font-size="11" lengthAdjust="spacingAndGlyphs" textLength="42" x="220.5" y="806.2104">int type</text><text fill="#000000" font-family="sans-serif" font-size="11" lengthAdjust="spacingAndGlyphs" textLength="120" x="220.5" y="819.0151">datetime obtained_at</text><line style="stroke: #A80036; stroke-width: 1.5;" x1="215.5" x2="345.5" y1="825.6094" y2="825.6094"/><!--class Measurement--><rect fill="#FEFECE" filter="url(#f99dpd8)" height="112.0234" style="stroke: #A80036; stroke-width: 1.5;" width="143" x="554" y="741"/><ellipse cx="580.25" cy="757" fill="#ADD1B2" rx="11" ry="11" style="stroke: #A80036; stroke-width: 1.0;"/><path d="M583.2188,762.6406 Q582.6406,762.9375 582,763.0859 Q581.3594,763.2344 580.6563,763.2344 Q578.1563,763.2344 576.8359,761.5859 Q575.5156,759.9375 575.5156,756.8125 Q575.5156,753.6875 576.8359,752.0313 Q578.1563,750.375 580.6563,750.375 Q581.3594,750.375 582.0078,750.5313 Q582.6563,750.6875 583.2188,750.9844 L583.2188,753.7031 Q582.5938,753.125 582,752.8516 Q581.4063,752.5781 580.7813,752.5781 Q579.4375,752.5781 578.75,753.6484 Q578.0625,754.7188 578.0625,756.8125 Q578.0625,758.9063 578.75,759.9766 Q579.4375,761.0469 580.7813,761.0469 Q581.4063,761.0469 582,760.7734 Q582.5938,760.5 583.2188,759.9219 L583.2188,762.6406 Z "/><text fill="#000000" font-family="sans-serif" font-size="12" lengthAdjust="spacingAndGlyphs" textLength="86" x="596.75" y="761.1543">Measurement</text><line style="stroke: #A80036; stroke-width: 1.5;" x1="555" x2="696" y1="773" y2="773"/><text fill="#000000" font-family="sans-serif" font-size="11" lengthAdjust="spacingAndGlyphs" textLength="131" x="560" y="787.2104">datetime performed_at</text><text fill="#000000" font-family="sans-serif" font-size="11" lengthAdjust="spacingAndGlyphs" textLength="82" x="560" y="800.0151">list downloads</text><text fill="#000000" font-family="sans-serif" font-size="11" lengthAdjust="spacingAndGlyphs" textLength="55" x="560" y="812.8198">list circuit</text><text fill="#000000" font-family="sans-serif" font-size="11" lengthAdjust="spacingAndGlyphs" textLength="131" x="560" y="825.6245">Destination destination</text><text fill="#000000" font-family="sans-serif" font-size="11" lengthAdjust="spacingAndGlyphs" textLength="78" x="560" y="838.4292">Failure failure</text><line style="stroke: #A80036; stroke-width: 1.5;" x1="555" x2="696" y1="845.0234" y2="845.0234"/><!--class RouterStatus--><rect fill="#FEFECE" filter="url(#f99dpd8)" height="48" style="stroke: #A80036; stroke-width: 1.5;" width="115" x="6" y="518"/><ellipse cx="21" cy="534" fill="#ADD1B2" rx="11" ry="11" style="stroke: #A80036; stroke-width: 1.0;"/><path d="M23.9688,539.6406 Q23.3906,539.9375 22.75,540.0859 Q22.1094,540.2344 21.4063,540.2344 Q18.9063,540.2344 17.5859,538.5859 Q16.2656,536.9375 16.2656,533.8125 Q16.2656,530.6875 17.5859,529.0313 Q18.9063,527.375 21.4063,527.375 Q22.1094,527.375 22.7578,527.5313 Q23.4063,527.6875 23.9688,527.9844 L23.9688,530.7031 Q23.3438,530.125 22.75,529.8516 Q22.1563,529.5781 21.5313,529.5781 Q20.1875,529.5781 19.5,530.6484 Q18.8125,531.7188 18.8125,533.8125 Q18.8125,535.9063 19.5,536.9766 Q20.1875,538.0469 21.5313,538.0469 Q22.1563,538.0469 22.75,537.7734 Q23.3438,537.5 23.9688,536.9219 L23.9688,539.6406 Z "/><text fill="#000000" font-family="sans-serif" font-size="12" lengthAdjust="spacingAndGlyphs" textLength="83" x="35" y="538.1543">RouterStatus</text><line style="stroke: #A80036; stroke-width: 1.5;" x1="7" x2="120" y1="550" y2="550"/><line style="stroke: #A80036; stroke-width: 1.5;" x1="7" x2="120" y1="558" y2="558"/><!--class RelayDescriptor--><rect fill="#FEFECE" filter="url(#f99dpd8)" height="48" style="stroke: #A80036; stroke-width: 1.5;" width="130" x="156.5" y="518"/><ellipse cx="171.5" cy="534" fill="#ADD1B2" rx="11" ry="11" style="stroke: #A80036; stroke-width: 1.0;"/><path d="M174.4688,539.6406 Q173.8906,539.9375 173.25,540.0859 Q172.6094,540.2344 171.9063,540.2344 Q169.4063,540.2344 168.0859,538.5859 Q166.7656,536.9375 166.7656,533.8125 Q166.7656,530.6875 168.0859,529.0313 Q169.4063,527.375 171.9063,527.375 Q172.6094,527.375 173.2578,527.5313 Q173.9063,527.6875 174.4688,527.9844 L174.4688,530.7031 Q173.8438,530.125 173.25,529.8516 Q172.6563,529.5781 172.0313,529.5781 Q170.6875,529.5781 170,530.6484 Q169.3125,531.7188 169.3125,533.8125 Q169.3125,535.9063 170,536.9766 Q170.6875,538.0469 172.0313,538.0469 Q172.6563,538.0469 173.25,537.7734 Q173.8438,537.5 174.4688,536.9219 L174.4688,539.6406 Z "/><text fill="#000000" font-family="sans-serif" font-size="12" lengthAdjust="spacingAndGlyphs" textLength="98" x="185.5" y="538.1543">RelayDescriptor</text><line style="stroke: #A80036; stroke-width: 1.5;" x1="157.5" x2="285.5" y1="550" y2="550"/><line style="stroke: #A80036; stroke-width: 1.5;" x1="157.5" x2="285.5" y1="558" y2="558"/><!--class Download--><rect fill="#FEFECE" filter="url(#f99dpd8)" height="86.4141" style="stroke: #A80036; stroke-width: 1.5;" width="96" x="392.5" y="218.5"/><ellipse cx="408.85" cy="234.5" fill="#ADD1B2" rx="11" ry="11" style="stroke: #A80036; stroke-width: 1.0;"/><path d="M411.8188,240.1406 Q411.2406,240.4375 410.6,240.5859 Q409.9594,240.7344 409.2563,240.7344 Q406.7563,240.7344 405.4359,239.0859 Q404.1156,237.4375 404.1156,234.3125 Q404.1156,231.1875 405.4359,229.5313 Q406.7563,227.875 409.2563,227.875 Q409.9594,227.875 410.6078,228.0313 Q411.2563,228.1875 411.8188,228.4844 L411.8188,231.2031 Q411.1938,230.625 410.6,230.3516 Q410.0063,230.0781 409.3813,230.0781 Q408.0375,230.0781 407.35,231.1484 Q406.6625,232.2188 406.6625,234.3125 Q406.6625,236.4063 407.35,237.4766 Q408.0375,238.5469 409.3813,238.5469 Q410.0063,238.5469 410.6,238.2734 Q411.1938,238 411.8188,237.4219 L411.8188,240.1406 Z "/><text fill="#000000" font-family="sans-serif" font-size="12" lengthAdjust="spacingAndGlyphs" textLength="61" x="423.15" y="238.6543">Download</text><line style="stroke: #A80036; stroke-width: 1.5;" x1="393.5" x2="487.5" y1="250.5" y2="250.5"/><text fill="#000000" font-family="sans-serif" font-size="11" lengthAdjust="spacingAndGlyphs" textLength="65" x="398.5" y="264.7104">int duration</text><text fill="#000000" font-family="sans-serif" font-size="11" lengthAdjust="spacingAndGlyphs" textLength="49" x="398.5" y="277.5151">int bytes</text><line style="stroke: #A80036; stroke-width: 1.5;" x1="393.5" x2="487.5" y1="284.1094" y2="284.1094"/><text fill="#000000" font-family="sans-serif" font-size="11" lengthAdjust="spacingAndGlyphs" textLength="84" x="398.5" y="298.3198">int bandwidth()</text><!--class Error--><rect fill="#FEFECE" filter="url(#f99dpd8)" height="48" style="stroke: #A80036; stroke-width: 1.5;" width="63" x="524" y="237.5"/><ellipse cx="539" cy="253.5" fill="#ADD1B2" rx="11" ry="11" style="stroke: #A80036; stroke-width: 1.0;"/><path d="M541.9688,259.1406 Q541.3906,259.4375 540.75,259.5859 Q540.1094,259.7344 539.4063,259.7344 Q536.9063,259.7344 535.5859,258.0859 Q534.2656,256.4375 534.2656,253.3125 Q534.2656,250.1875 535.5859,248.5313 Q536.9063,246.875 539.4063,246.875 Q540.1094,246.875 540.7578,247.0313 Q541.4063,247.1875 541.9688,247.4844 L541.9688,250.2031 Q541.3438,249.625 540.75,249.3516 Q540.1563,249.0781 539.5313,249.0781 Q538.1875,249.0781 537.5,250.1484 Q536.8125,251.2188 536.8125,253.3125 Q536.8125,255.4063 537.5,256.4766 Q538.1875,257.5469 539.5313,257.5469 Q540.1563,257.5469 540.75,257.2734 Q541.3438,257 541.9688,256.4219 L541.9688,259.1406 Z "/><text fill="#000000" font-family="sans-serif" font-size="12" lengthAdjust="spacingAndGlyphs" textLength="31" x="553" y="257.6543">Error</text><line style="stroke: #A80036; stroke-width: 1.5;" x1="525" x2="586" y1="269.5" y2="269.5"/><line style="stroke: #A80036; stroke-width: 1.5;" x1="525" x2="586" y1="277.5" y2="277.5"/><!--class Failure--><rect fill="#FEFECE" filter="url(#f99dpd8)" height="73.6094" style="stroke: #A80036; stroke-width: 1.5;" width="74" x="1075.5" y="27"/><ellipse cx="1090.5" cy="43" fill="#ADD1B2" rx="11" ry="11" style="stroke: #A80036; stroke-width: 1.0;"/><path d="M1093.4688,48.6406 Q1092.8906,48.9375 1092.25,49.0859 Q1091.6094,49.2344 1090.9063,49.2344 Q1088.4063,49.2344 1087.0859,47.5859 Q1085.7656,45.9375 1085.7656,42.8125 Q1085.7656,39.6875 1087.0859,38.0313 Q1088.4063,36.375 1090.9063,36.375 Q1091.6094,36.375 1092.2578,36.5313 Q1092.9063,36.6875 1093.4688,36.9844 L1093.4688,39.7031 Q1092.8438,39.125 1092.25,38.8516 Q1091.6563,38.5781 1091.0313,38.5781 Q1089.6875,38.5781 1089,39.6484 Q1088.3125,40.7188 1088.3125,42.8125 Q1088.3125,44.9063 1089,45.9766 Q1089.6875,47.0469 1091.0313,47.0469 Q1091.6563,47.0469 1092.25,46.7734 Q1092.8438,46.5 1093.4688,45.9219 L1093.4688,48.6406 Z "/><text fill="#000000" font-family="sans-serif" font-size="12" lengthAdjust="spacingAndGlyphs" textLength="42" x="1104.5" y="47.1543">Failure</text><line style="stroke: #A80036; stroke-width: 1.5;" x1="1076.5" x2="1148.5" y1="59" y2="59"/><text fill="#000000" font-family="sans-serif" font-size="11" lengthAdjust="spacingAndGlyphs" textLength="42" x="1081.5" y="73.2104">int type</text><text fill="#000000" font-family="sans-serif" font-size="11" lengthAdjust="spacingAndGlyphs" textLength="60" x="1081.5" y="86.0151">str reason</text><line style="stroke: #A80036; stroke-width: 1.5;" x1="1076.5" x2="1148.5" y1="92.6094" y2="92.6094"/><!--class Destinations--><rect fill="#FEFECE" filter="url(#f99dpd8)" height="112.0234" style="stroke: #A80036; stroke-width: 1.5;" width="180" x="1184.5" y="8"/><ellipse cx="1230.75" cy="24" fill="#ADD1B2" rx="11" ry="11" style="stroke: #A80036; stroke-width: 1.0;"/><path d="M1233.7188,29.6406 Q1233.1406,29.9375 1232.5,30.0859 Q1231.8594,30.2344 1231.1563,30.2344 Q1228.6563,30.2344 1227.3359,28.5859 Q1226.0156,26.9375 1226.0156,23.8125 Q1226.0156,20.6875 1227.3359,19.0313 Q1228.6563,17.375 1231.1563,17.375 Q1231.8594,17.375 1232.5078,17.5313 Q1233.1563,17.6875 1233.7188,17.9844 L1233.7188,20.7031 Q1233.0938,20.125 1232.5,19.8516 Q1231.9063,19.5781 1231.2813,19.5781 Q1229.9375,19.5781 1229.25,20.6484 Q1228.5625,21.7188 1228.5625,23.8125 Q1228.5625,25.9063 1229.25,26.9766 Q1229.9375,28.0469 1231.2813,28.0469 Q1231.9063,28.0469 1232.5,27.7734 Q1233.0938,27.5 1233.7188,26.9219 L1233.7188,29.6406 Z "/><text fill="#000000" font-family="sans-serif" font-size="12" lengthAdjust="spacingAndGlyphs" textLength="79" x="1251.25" y="28.1543">Destinations</text><line style="stroke: #A80036; stroke-width: 1.5;" x1="1185.5" x2="1363.5" y1="40" y2="40"/><text fill="#000000" font-family="sans-serif" font-size="11" lengthAdjust="spacingAndGlyphs" textLength="91" x="1190.5" y="54.2104">list destinations</text><line style="stroke: #A80036; stroke-width: 1.5;" x1="1185.5" x2="1363.5" y1="60.8047" y2="60.8047"/><text fill="#000000" font-family="sans-serif" font-size="11" lengthAdjust="spacingAndGlyphs" textLength="168" x="1190.5" y="75.0151">list responsive_destinations()</text><text fill="#000000" font-family="sans-serif" font-size="11" lengthAdjust="spacingAndGlyphs" textLength="120" x="1190.5" y="87.8198">Destination random()</text><text fill="#000000" font-family="sans-serif" font-size="11" lengthAdjust="spacingAndGlyphs" textLength="131" x="1190.5" y="100.6245">void add_destination?()</text><text fill="#000000" font-family="sans-serif" font-size="11" lengthAdjust="spacingAndGlyphs" textLength="145" x="1190.5" y="113.4292">void delete_destination?()</text><!--class Destination--><rect fill="#FEFECE" filter="url(#f99dpd8)" height="60.8047" style="stroke: #A80036; stroke-width: 1.5;" width="127" x="1211" y="231"/><ellipse cx="1236.35" cy="247" fill="#ADD1B2" rx="11" ry="11" style="stroke: #A80036; stroke-width: 1.0;"/><path d="M1239.3188,252.6406 Q1238.7406,252.9375 1238.1,253.0859 Q1237.4594,253.2344 1236.7563,253.2344 Q1234.2563,253.2344 1232.9359,251.5859 Q1231.6156,249.9375 1231.6156,246.8125 Q1231.6156,243.6875 1232.9359,242.0313 Q1234.2563,240.375 1236.7563,240.375 Q1237.4594,240.375 1238.1078,240.5313 Q1238.7563,240.6875 1239.3188,240.9844 L1239.3188,243.7031 Q1238.6938,243.125 1238.1,242.8516 Q1237.5063,242.5781 1236.8813,242.5781 Q1235.5375,242.5781 1234.85,243.6484 Q1234.1625,244.7188 1234.1625,246.8125 Q1234.1625,248.9063 1234.85,249.9766 Q1235.5375,251.0469 1236.8813,251.0469 Q1237.5063,251.0469 1238.1,250.7734 Q1238.6938,250.5 1239.3188,249.9219 L1239.3188,252.6406 Z "/><text fill="#000000" font-family="sans-serif" font-size="12" lengthAdjust="spacingAndGlyphs" textLength="72" x="1252.65" y="251.1543">Destination</text><line style="stroke: #A80036; stroke-width: 1.5;" x1="1212" x2="1337" y1="263" y2="263"/><line style="stroke: #A80036; stroke-width: 1.5;" x1="1212" x2="1337" y1="271" y2="271"/><text fill="#000000" font-family="sans-serif" font-size="11" lengthAdjust="spacingAndGlyphs" textLength="115" x="1217" y="285.2104">bool is_responsive()</text><!--class Scanner--><rect fill="#FEFECE" filter="url(#f99dpd8)" height="112.0234" style="stroke: #A80036; stroke-width: 1.5;" width="174" x="866.5" y="8"/><ellipse cx="923.25" cy="24" fill="#ADD1B2" rx="11" ry="11" style="stroke: #A80036; stroke-width: 1.0;"/><path d="M926.2188,29.6406 Q925.6406,29.9375 925,30.0859 Q924.3594,30.2344 923.6563,30.2344 Q921.1563,30.2344 919.8359,28.5859 Q918.5156,26.9375 918.5156,23.8125 Q918.5156,20.6875 919.8359,19.0313 Q921.1563,17.375 923.6563,17.375 Q924.3594,17.375 925.0078,17.5313 Q925.6563,17.6875 926.2188,17.9844 L926.2188,20.7031 Q925.5938,20.125 925,19.8516 Q924.4063,19.5781 923.7813,19.5781 Q922.4375,19.5781 921.75,20.6484 Q921.0625,21.7188 921.0625,23.8125 Q921.0625,25.9063 921.75,26.9766 Q922.4375,28.0469 923.7813,28.0469 Q924.4063,28.0469 925,27.7734 Q925.5938,27.5 926.2188,26.9219 L926.2188,29.6406 Z "/><text fill="#000000" font-family="sans-serif" font-size="12" lengthAdjust="spacingAndGlyphs" textLength="52" x="943.75" y="28.1543">Scanner</text><line style="stroke: #A80036; stroke-width: 1.5;" x1="867.5" x2="1039.5" y1="40" y2="40"/><text fill="#000000" font-family="sans-serif" font-size="11" lengthAdjust="spacingAndGlyphs" textLength="114" x="872.5" y="54.2104">Controller controller</text><text fill="#000000" font-family="sans-serif" font-size="11" lengthAdjust="spacingAndGlyphs" textLength="56" x="872.5" y="67.0151">list relays</text><text fill="#000000" font-family="sans-serif" font-size="11" lengthAdjust="spacingAndGlyphs" textLength="162" x="872.5" y="79.8198">Queue? relays_to_measure?</text><text fill="#000000" font-family="sans-serif" font-size="11" lengthAdjust="spacingAndGlyphs" textLength="126" x="872.5" y="92.6245">list relays_measured?</text><text fill="#000000" font-family="sans-serif" font-size="11" lengthAdjust="spacingAndGlyphs" textLength="91" x="872.5" y="105.4292">list new_relays?</text><line style="stroke: #A80036; stroke-width: 1.5;" x1="867.5" x2="1039.5" y1="112.0234" y2="112.0234"/><path d="M664.164,101.609 C704.401,123.706 757.322,152.767 806.888,179.987 " fill="none" style="stroke: #A80036; stroke-width: 1.0;"/><polygon fill="none" points="660.788,107.741,646.627,91.978,667.527,95.47,660.788,107.741" style="stroke: #A80036; stroke-width: 1.0;"/><path d="M823.235,350.342 C770.379,385.984 709.772,426.854 658.262,461.589 " fill="none" style="stroke: #A80036; stroke-width: 1.0;"/><polygon fill="#A80036" points="834.043,343.054,826.832,343.0927,824.0942,349.7639,831.3052,349.7252,834.043,343.054" style="stroke: #A80036; stroke-width: 1.0;"/><path d="M601.624,121.478 C602.8,140.103 603.92,160.929 604.5,180 C606.702,252.411 615.778,271.439 604.5,343 C601.407,362.627 596.688,382.96 591.186,402.789 " fill="none" style="stroke: #A80036; stroke-width: 1.0;"/><polygon fill="none" points="594.62,121.652,600.271,101.23,608.589,120.719,594.62,121.652" style="stroke: #A80036; stroke-width: 1.0;"/><path d="M413.293,666.782 C378.258,700.873 342.953,735.228 317.562,759.9361 " fill="none" style="stroke: #A80036; stroke-width: 1.0;"/><polygon fill="#A80036" points="422.672,657.656,415.5824,658.9739,414.0721,666.0251,421.1618,664.7072,422.672,657.656" style="stroke: #A80036; stroke-width: 1.0;"/><path d="M591.276,694.134 C596.854,710.735 602.233,726.747 607.01,740.966 " fill="none" style="stroke: #A80036; stroke-width: 1.0;"/><polygon fill="#A80036" points="586.979,681.344,585.0978,688.3054,590.8002,692.7193,592.6814,685.7579,586.979,681.344" style="stroke: #A80036; stroke-width: 1.0;"/><path d="M80.965,584.821 C94.2081,613.64 114.245,651.847 138.5,681 C163.659,711.239 197.761,739.166 226.24,759.9247 " fill="none" style="stroke: #A80036; stroke-width: 1.0;"/><polygon fill="none" points="74.4085,587.301,72.7368,566.178,87.2164,581.648,74.4085,587.301" style="stroke: #A80036; stroke-width: 1.0;"/><path d="M231.497,585.869 C242.902,634.774 261.352,713.893 272.062,759.8185 " fill="none" style="stroke: #A80036; stroke-width: 1.0;"/><polygon fill="none" points="224.67,587.415,226.945,566.348,238.304,584.236,224.67,587.415" style="stroke: #A80036; stroke-width: 1.0;"/><path d="M528.95,81.996 C477.971,98.363 411.139,128.431 374.5,180 C244.247,363.331 341.345,459.316 303.5,681 C298.977,707.493 293.004,737.24 288.278,759.8416 " fill="none" style="stroke: #A80036; stroke-width: 1.0;"/><polygon fill="none" points="527.137,75.232,548.305,76.185,531.163,88.64,527.137,75.232" style="stroke: #A80036; stroke-width: 1.0;"/><path d="M555.729,117.014 C530.311,148.665 498.261,188.575 474.419,218.264 " fill="none" style="stroke: #A80036; stroke-width: 1.0;"/><polygon fill="none" points="550.356,112.525,568.337,101.314,561.272,121.291,550.356,112.525" style="stroke: #A80036; stroke-width: 1.0;"/><path d="M585.494,120.887 C577.208,159.454 566.62,208.74 560.495,237.251 " fill="none" style="stroke: #A80036; stroke-width: 1.0;"/><polygon fill="none" points="578.654,119.397,589.699,101.314,592.341,122.338,578.654,119.397" style="stroke: #A80036; stroke-width: 1.0;"/><path d="M616.631,120.263 C651.497,228.678 718.033,476.504 675.5,681 C671.288,701.249 663.317,722.306 654.957,740.783 " fill="none" style="stroke: #A80036; stroke-width: 1.0;"/><polygon fill="none" points="609.923,122.274,610.322,101.088,623.222,117.898,609.923,122.274" style="stroke: #A80036; stroke-width: 1.0;"/><path d="M1274.5,133.655 C1274.5,166.906 1274.5,205.099 1274.5,230.814 " fill="none" style="stroke: #A80036; stroke-width: 1.0;"/><polygon fill="#A80036" points="1274.5,120.239,1270.5,126.239,1274.5,132.239,1278.5,126.239,1274.5,120.239" style="stroke: #A80036; stroke-width: 1.0;"/><path d="M953.5,133.63 C953.5,148.567 953.5,164.502 953.5,179.856 " fill="none" style="stroke: #A80036; stroke-width: 1.0;"/><polygon fill="#A80036" points="953.5,120.239,949.5,126.239,953.5,132.239,957.5,126.239,953.5,120.239" style="stroke: #A80036; stroke-width: 1.0;"/></g></svg>