<?xml version="1.0" encoding="UTF-8" standalone="no"?><svg xmlns="http://www.w3.org/2000/svg" xmlns:xlink="http://www.w3.org/1999/xlink" contentScriptType="application/ecmascript" contentStyleType="text/css" height="384px" preserveAspectRatio="none" style="width:713px;height:384px;" version="1.1" viewBox="0 0 713 384" width="713px" zoomAndPan="magnify"><defs><filter height="300%" id="fl9sfvp" width="300%" x="-1" y="-1"><feGaussianBlur result="blurOut" stdDeviation="2.0"/><feColorMatrix in="blurOut" result="blurOut2" type="matrix" values="0 0 0 0 0 0 0 0 0 0 0 0 0 0 0 0 0 0 .4 0"/><feOffset dx="4.0" dy="4.0" in="blurOut2" result="blurOut3"/><feBlend in="SourceGraphic" in2="blurOut3" mode="normal"/></filter></defs><g><!--class RelayList--><rect fill="#FEFECE" filter="url(#fl9sfvp)" height="73.6094" style="stroke: #A80036; stroke-width: 1.5;" width="217" x="6" y="142"/><ellipse cx="83.25" cy="158" fill="#ADD1B2" rx="11" ry="11" style="stroke: #A80036; stroke-width: 1.0;"/><path d="M86.2188,163.6406 Q85.6406,163.9375 85,164.0859 Q84.3594,164.2344 83.6563,164.2344 Q81.1563,164.2344 79.8359,162.5859 Q78.5156,160.9375 78.5156,157.8125 Q78.5156,154.6875 79.8359,153.0313 Q81.1563,151.375 83.6563,151.375 Q84.3594,151.375 85.0078,151.5313 Q85.6563,151.6875 86.2188,151.9844 L86.2188,154.7031 Q85.5938,154.125 85,153.8516 Q84.4063,153.5781 83.7813,153.5781 Q82.4375,153.5781 81.75,154.6484 Q81.0625,155.7188 81.0625,157.8125 Q81.0625,159.9063 81.75,160.9766 Q82.4375,162.0469 83.7813,162.0469 Q84.4063,162.0469 85,161.7734 Q85.5938,161.5 86.2188,160.9219 L86.2188,163.6406 Z "/><text fill="#000000" font-family="sans-serif" font-size="12" lengthAdjust="spacingAndGlyphs" textLength="54" x="103.75" y="162.1543">RelayList</text><line style="stroke: #A80036; stroke-width: 1.5;" x1="7" x2="222" y1="174" y2="174"/><text fill="#000000" font-family="sans-serif" font-size="11" lengthAdjust="spacingAndGlyphs" textLength="56" x="12" y="188.2104">list relays</text><line style="stroke: #A80036; stroke-width: 1.5;" x1="7" x2="222" y1="194.8047" y2="194.8047"/><text fill="#000000" font-family="sans-serif" font-size="11" lengthAdjust="spacingAndGlyphs" textLength="205" x="12" y="209.0151">list exits_not_bad_can_exit_to_port()</text><!--class Relay--><rect fill="#FEFECE" filter="url(#fl9sfvp)" height="99.2188" style="stroke: #A80036; stroke-width: 1.5;" width="164" x="240.5" y="276"/><ellipse cx="301.75" cy="292" fill="#ADD1B2" rx="11" ry="11" style="stroke: #A80036; stroke-width: 1.0;"/><path d="M304.7188,297.6406 Q304.1406,297.9375 303.5,298.0859 Q302.8594,298.2344 302.1563,298.2344 Q299.6563,298.2344 298.3359,296.5859 Q297.0156,294.9375 297.0156,291.8125 Q297.0156,288.6875 298.3359,287.0313 Q299.6563,285.375 302.1563,285.375 Q302.8594,285.375 303.5078,285.5313 Q304.1563,285.6875 304.7188,285.9844 L304.7188,288.7031 Q304.0938,288.125 303.5,287.8516 Q302.9063,287.5781 302.2813,287.5781 Q300.9375,287.5781 300.25,288.6484 Q299.5625,289.7188 299.5625,291.8125 Q299.5625,293.9063 300.25,294.9766 Q300.9375,296.0469 302.2813,296.0469 Q302.9063,296.0469 303.5,295.7734 Q304.0938,295.5 304.7188,294.9219 L304.7188,297.6406 Z "/><text fill="#000000" font-family="sans-serif" font-size="12" lengthAdjust="spacingAndGlyphs" textLength="33" x="322.25" y="296.1543">Relay</text><line style="stroke: #A80036; stroke-width: 1.5;" x1="241.5" x2="403.5" y1="308" y2="308"/><line style="stroke: #A80036; stroke-width: 1.5;" x1="241.5" x2="403.5" y1="316" y2="316"/><text fill="#000000" font-family="sans-serif" font-size="11" lengthAdjust="spacingAndGlyphs" textLength="143" x="246.5" y="330.2104">int observed_bandwidth()</text><text fill="#000000" font-family="sans-serif" font-size="11" lengthAdjust="spacingAndGlyphs" textLength="136" x="246.5" y="343.0151">int average_bandwidth()</text><text fill="#000000" font-family="sans-serif" font-size="11" lengthAdjust="spacingAndGlyphs" textLength="120" x="246.5" y="355.8198">int burst_bandwidth()</text><text fill="#000000" font-family="sans-serif" font-size="11" lengthAdjust="spacingAndGlyphs" textLength="152" x="246.5" y="368.6245">int consensus_bandwidth()</text><!--class RelayPrioritizer--><rect fill="#FEFECE" filter="url(#fl9sfvp)" height="73.6094" style="stroke: #A80036; stroke-width: 1.5;" width="151" x="258" y="142"/><ellipse cx="285.6" cy="158" fill="#ADD1B2" rx="11" ry="11" style="stroke: #A80036; stroke-width: 1.0;"/><path d="M288.5688,163.6406 Q287.9906,163.9375 287.35,164.0859 Q286.7094,164.2344 286.0063,164.2344 Q283.5063,164.2344 282.1859,162.5859 Q280.8656,160.9375 280.8656,157.8125 Q280.8656,154.6875 282.1859,153.0313 Q283.5063,151.375 286.0063,151.375 Q286.7094,151.375 287.3578,151.5313 Q288.0063,151.6875 288.5688,151.9844 L288.5688,154.7031 Q287.9438,154.125 287.35,153.8516 Q286.7563,153.5781 286.1313,153.5781 Q284.7875,153.5781 284.1,154.6484 Q283.4125,155.7188 283.4125,157.8125 Q283.4125,159.9063 284.1,160.9766 Q284.7875,162.0469 286.1313,162.0469 Q286.7563,162.0469 287.35,161.7734 Q287.9438,161.5 288.5688,160.9219 L288.5688,163.6406 Z "/><text fill="#000000" font-family="sans-serif" font-size="12" lengthAdjust="spacingAndGlyphs" textLength="91" x="302.4" y="162.1543">RelayPrioritizer</text><line style="stroke: #A80036; stroke-width: 1.5;" x1="259" x2="408" y1="174" y2="174"/><text fill="#000000" font-family="sans-serif" font-size="11" lengthAdjust="spacingAndGlyphs" textLength="71" x="264" y="188.2104">result_dump</text><line style="stroke: #A80036; stroke-width: 1.5;" x1="259" x2="408" y1="194.8047" y2="194.8047"/><text fill="#000000" font-family="sans-serif" font-size="11" lengthAdjust="spacingAndGlyphs" textLength="139" x="264" y="209.0151">generator best_priority()</text><!--class Result--><rect fill="#FEFECE" filter="url(#fl9sfvp)" height="48" style="stroke: #A80036; stroke-width: 1.5;" width="71" x="455" y="155"/><ellipse cx="470" cy="171" fill="#ADD1B2" rx="11" ry="11" style="stroke: #A80036; stroke-width: 1.0;"/><path d="M472.9688,176.6406 Q472.3906,176.9375 471.75,177.0859 Q471.1094,177.2344 470.4063,177.2344 Q467.9063,177.2344 466.5859,175.5859 Q465.2656,173.9375 465.2656,170.8125 Q465.2656,167.6875 466.5859,166.0313 Q467.9063,164.375 470.4063,164.375 Q471.1094,164.375 471.7578,164.5313 Q472.4063,164.6875 472.9688,164.9844 L472.9688,167.7031 Q472.3438,167.125 471.75,166.8516 Q471.1563,166.5781 470.5313,166.5781 Q469.1875,166.5781 468.5,167.6484 Q467.8125,168.7188 467.8125,170.8125 Q467.8125,172.9063 468.5,173.9766 Q469.1875,175.0469 470.5313,175.0469 Q471.1563,175.0469 471.75,174.7734 Q472.3438,174.5 472.9688,173.9219 L472.9688,176.6406 Z "/><text fill="#000000" font-family="sans-serif" font-size="12" lengthAdjust="spacingAndGlyphs" textLength="39" x="484" y="175.1543">Result</text><line style="stroke: #A80036; stroke-width: 1.5;" x1="456" x2="525" y1="187" y2="187"/><line style="stroke: #A80036; stroke-width: 1.5;" x1="456" x2="525" y1="195" y2="195"/><!--class ResultError--><rect fill="#FEFECE" filter="url(#fl9sfvp)" height="48" style="stroke: #A80036; stroke-width: 1.5;" width="102" x="439.5" y="301.5"/><ellipse cx="454.5" cy="317.5" fill="#ADD1B2" rx="11" ry="11" style="stroke: #A80036; stroke-width: 1.0;"/><path d="M457.4688,323.1406 Q456.8906,323.4375 456.25,323.5859 Q455.6094,323.7344 454.9063,323.7344 Q452.4063,323.7344 451.0859,322.0859 Q449.7656,320.4375 449.7656,317.3125 Q449.7656,314.1875 451.0859,312.5313 Q452.4063,310.875 454.9063,310.875 Q455.6094,310.875 456.2578,311.0313 Q456.9063,311.1875 457.4688,311.4844 L457.4688,314.2031 Q456.8438,313.625 456.25,313.3516 Q455.6563,313.0781 455.0313,313.0781 Q453.6875,313.0781 453,314.1484 Q452.3125,315.2188 452.3125,317.3125 Q452.3125,319.4063 453,320.4766 Q453.6875,321.5469 455.0313,321.5469 Q455.6563,321.5469 456.25,321.2734 Q456.8438,321 457.4688,320.4219 L457.4688,323.1406 Z "/><text fill="#000000" font-family="sans-serif" font-size="12" lengthAdjust="spacingAndGlyphs" textLength="70" x="468.5" y="321.6543">ResultError</text><line style="stroke: #A80036; stroke-width: 1.5;" x1="440.5" x2="540.5" y1="333.5" y2="333.5"/><line style="stroke: #A80036; stroke-width: 1.5;" x1="440.5" x2="540.5" y1="341.5" y2="341.5"/><!--class ResultSuccess--><rect fill="#FEFECE" filter="url(#fl9sfvp)" height="48" style="stroke: #A80036; stroke-width: 1.5;" width="123" x="577" y="301.5"/><ellipse cx="592" cy="317.5" fill="#ADD1B2" rx="11" ry="11" style="stroke: #A80036; stroke-width: 1.0;"/><path d="M594.9688,323.1406 Q594.3906,323.4375 593.75,323.5859 Q593.1094,323.7344 592.4063,323.7344 Q589.9063,323.7344 588.5859,322.0859 Q587.2656,320.4375 587.2656,317.3125 Q587.2656,314.1875 588.5859,312.5313 Q589.9063,310.875 592.4063,310.875 Q593.1094,310.875 593.7578,311.0313 Q594.4063,311.1875 594.9688,311.4844 L594.9688,314.2031 Q594.3438,313.625 593.75,313.3516 Q593.1563,313.0781 592.5313,313.0781 Q591.1875,313.0781 590.5,314.1484 Q589.8125,315.2188 589.8125,317.3125 Q589.8125,319.4063 590.5,320.4766 Q591.1875,321.5469 592.5313,321.5469 Q593.1563,321.5469 593.75,321.2734 Q594.3438,321 594.9688,320.4219 L594.9688,323.1406 Z "/><text fill="#000000" font-family="sans-serif" font-size="12" lengthAdjust="spacingAndGlyphs" textLength="91" x="606" y="321.6543">ResultSuccess</text><line style="stroke: #A80036; stroke-width: 1.5;" x1="578" x2="699" y1="333.5" y2="333.5"/><line style="stroke: #A80036; stroke-width: 1.5;" x1="578" x2="699" y1="341.5" y2="341.5"/><!--class ResultDump--><rect fill="#FEFECE" filter="url(#fl9sfvp)" height="60.8047" style="stroke: #A80036; stroke-width: 1.5;" width="107" x="437" y="14.5"/><ellipse cx="452" cy="30.5" fill="#ADD1B2" rx="11" ry="11" style="stroke: #A80036; stroke-width: 1.0;"/><path d="M454.9688,36.1406 Q454.3906,36.4375 453.75,36.5859 Q453.1094,36.7344 452.4063,36.7344 Q449.9063,36.7344 448.5859,35.0859 Q447.2656,33.4375 447.2656,30.3125 Q447.2656,27.1875 448.5859,25.5313 Q449.9063,23.875 452.4063,23.875 Q453.1094,23.875 453.7578,24.0313 Q454.4063,24.1875 454.9688,24.4844 L454.9688,27.2031 Q454.3438,26.625 453.75,26.3516 Q453.1563,26.0781 452.5313,26.0781 Q451.1875,26.0781 450.5,27.1484 Q449.8125,28.2188 449.8125,30.3125 Q449.8125,32.4063 450.5,33.4766 Q451.1875,34.5469 452.5313,34.5469 Q453.1563,34.5469 453.75,34.2734 Q454.3438,34 454.9688,33.4219 L454.9688,36.1406 Z "/><text fill="#000000" font-family="sans-serif" font-size="12" lengthAdjust="spacingAndGlyphs" textLength="75" x="466" y="34.6543">ResultDump</text><line style="stroke: #A80036; stroke-width: 1.5;" x1="438" x2="543" y1="46.5" y2="46.5"/><text fill="#000000" font-family="sans-serif" font-size="11" lengthAdjust="spacingAndGlyphs" textLength="46" x="443" y="60.7104">list data</text><line style="stroke: #A80036; stroke-width: 1.5;" x1="438" x2="543" y1="67.3047" y2="67.3047"/><!--class DestinationList--><rect fill="#FEFECE" filter="url(#fl9sfvp)" height="73.6094" style="stroke: #A80036; stroke-width: 1.5;" width="125" x="579" y="8"/><ellipse cx="594" cy="24" fill="#ADD1B2" rx="11" ry="11" style="stroke: #A80036; stroke-width: 1.0;"/><path d="M596.9688,29.6406 Q596.3906,29.9375 595.75,30.0859 Q595.1094,30.2344 594.4063,30.2344 Q591.9063,30.2344 590.5859,28.5859 Q589.2656,26.9375 589.2656,23.8125 Q589.2656,20.6875 590.5859,19.0313 Q591.9063,17.375 594.4063,17.375 Q595.1094,17.375 595.7578,17.5313 Q596.4063,17.6875 596.9688,17.9844 L596.9688,20.7031 Q596.3438,20.125 595.75,19.8516 Q595.1563,19.5781 594.5313,19.5781 Q593.1875,19.5781 592.5,20.6484 Q591.8125,21.7188 591.8125,23.8125 Q591.8125,25.9063 592.5,26.9766 Q593.1875,28.0469 594.5313,28.0469 Q595.1563,28.0469 595.75,27.7734 Q596.3438,27.5 596.9688,26.9219 L596.9688,29.6406 Z "/><text fill="#000000" font-family="sans-serif" font-size="12" lengthAdjust="spacingAndGlyphs" textLength="93" x="608" y="28.1543">DestinationList</text><line style="stroke: #A80036; stroke-width: 1.5;" x1="580" x2="703" y1="40" y2="40"/><text fill="#000000" font-family="sans-serif" font-size="11" lengthAdjust="spacingAndGlyphs" textLength="105" x="585" y="54.2104">list DestinationList</text><line style="stroke: #A80036; stroke-width: 1.5;" x1="580" x2="703" y1="60.8047" y2="60.8047"/><text fill="#000000" font-family="sans-serif" font-size="11" lengthAdjust="spacingAndGlyphs" textLength="100" x="585" y="75.0151">Destination next()</text><!--class Destination--><rect fill="#FEFECE" filter="url(#fl9sfvp)" height="48" style="stroke: #A80036; stroke-width: 1.5;" width="104" x="589.5" y="155"/><ellipse cx="604.5" cy="171" fill="#ADD1B2" rx="11" ry="11" style="stroke: #A80036; stroke-width: 1.0;"/><path d="M607.4688,176.6406 Q606.8906,176.9375 606.25,177.0859 Q605.6094,177.2344 604.9063,177.2344 Q602.4063,177.2344 601.0859,175.5859 Q599.7656,173.9375 599.7656,170.8125 Q599.7656,167.6875 601.0859,166.0313 Q602.4063,164.375 604.9063,164.375 Q605.6094,164.375 606.2578,164.5313 Q606.9063,164.6875 607.4688,164.9844 L607.4688,167.7031 Q606.8438,167.125 606.25,166.8516 Q605.6563,166.5781 605.0313,166.5781 Q603.6875,166.5781 603,167.6484 Q602.3125,168.7188 602.3125,170.8125 Q602.3125,172.9063 603,173.9766 Q603.6875,175.0469 605.0313,175.0469 Q605.6563,175.0469 606.25,174.7734 Q606.8438,174.5 607.4688,173.9219 L607.4688,176.6406 Z "/><text fill="#000000" font-family="sans-serif" font-size="12" lengthAdjust="spacingAndGlyphs" textLength="72" x="618.5" y="175.1543">Destination</text><line style="stroke: #A80036; stroke-width: 1.5;" x1="590.5" x2="692.5" y1="187" y2="187"/><line style="stroke: #A80036; stroke-width: 1.5;" x1="590.5" x2="692.5" y1="195" y2="195"/><path d="M177.414,223.707 C201.077,240.146 228.121,258.934 252.398,275.7992 " fill="none" style="stroke: #A80036; stroke-width: 1.0;"/><polygon fill="#A80036" points="166.451,216.091,169.0966,222.7993,176.3064,222.9373,173.6608,216.229,166.451,216.091" style="stroke: #A80036; stroke-width: 1.0;"/><path d="M329.742,229.37 C328.6,244.372 327.346,260.842 326.207,275.7992 " fill="none" style="stroke: #A80036; stroke-width: 1.0;"/><polygon fill="#A80036" points="330.753,216.091,326.309,221.77,329.8418,228.0564,334.2859,222.3774,330.753,216.091" style="stroke: #A80036; stroke-width: 1.0;"/><path d="M490.5,223.413 C490.5,249.016 490.5,280.399 490.5,301.3412 " fill="none" style="stroke: #A80036; stroke-width: 1.0;"/><polygon fill="none" points="483.5,223.216,490.5,203.216,497.5,223.216,483.5,223.216" style="stroke: #A80036; stroke-width: 1.0;"/><path d="M528.763,217.358 C555.95,243.902 591.606,278.7152 614.78,301.3412 " fill="none" style="stroke: #A80036; stroke-width: 1.0;"/><polygon fill="none" points="523.699,222.197,514.279,203.216,533.479,212.18,523.699,222.197" style="stroke: #A80036; stroke-width: 1.0;"/><path d="M490.5,88.645 C490.5,110.541 490.5,136.375 490.5,154.618 " fill="none" style="stroke: #A80036; stroke-width: 1.0;"/><polygon fill="#A80036" points="490.5,75.623,486.5,81.623,490.5,87.623,494.5,81.623,490.5,75.623" style="stroke: #A80036; stroke-width: 1.0;"/><path d="M453.635,211.708 C431.776,230.509 403.621,254.726 379.006,275.8983 " fill="none" style="stroke: #A80036; stroke-width: 1.0;"/><polygon fill="#A80036" points="463.508,203.216,456.3508,204.096,454.4103,211.0411,461.5675,210.1611,463.508,203.216" style="stroke: #A80036; stroke-width: 1.0;"/><path d="M641.5,95.095 C641.5,115.563 641.5,138.357 641.5,154.856 " fill="none" style="stroke: #A80036; stroke-width: 1.0;"/><polygon fill="#A80036" points="641.5,82.07,637.5,88.07,641.5,94.07,645.5,88.07,641.5,82.07" style="stroke: #A80036; stroke-width: 1.0;"/></g></svg>